<svg width="40" height="40" viewBox="0 0 40 40" fill="none" xmlns="http://www.w3.org/2000/svg">
    <circle cx="20" cy="20" r="20" fill="black" />
    <path opacity="0.4"
        d="M18.6198 22.9287H13.8854C13.2862 22.9287 12.7998 23.4066 12.7998 23.9953C12.7998 24.5831 13.2862 25.0618 13.8854 25.0618H18.6198C19.219 25.0618 19.7054 24.5831 19.7054 23.9953C19.7054 23.4066 19.219 22.9287 18.6198 22.9287Z"
        fill="white" />
    <path opacity="0.4"
        d="M27.2002 16.0326C27.2002 15.4447 26.7138 14.9668 26.1154 14.9668H21.381C20.7818 14.9668 20.2954 15.4447 20.2954 16.0326C20.2954 16.6213 20.7818 17.0991 21.381 17.0991H26.1154C26.7138 17.0991 27.2002 16.6213 27.2002 16.0326Z"
        fill="white" />
    <path
        d="M17.7518 16.0322C17.7518 17.3762 16.6438 18.4655 15.2758 18.4655C13.9086 18.4655 12.7998 17.3762 12.7998 16.0322C12.7998 14.689 13.9086 13.5996 15.2758 13.5996C16.6438 13.5996 17.7518 14.689 17.7518 16.0322Z"
        fill="white" />
    <path
        d="M27.2001 23.9685C27.2001 25.3117 26.0921 26.4011 24.7241 26.4011C23.3568 26.4011 22.248 25.3117 22.248 23.9685C22.248 22.6244 23.3568 21.5352 24.7241 21.5352C26.0921 21.5352 27.2001 22.6244 27.2001 23.9685Z"
        fill="white" />
</svg>
    